<?xml version="1.0" encoding="UTF-8"?>
<svg width="2392" height="1812" viewBox="0 0 2392 1812" xmlns="http://www.w3.org/2000/svg" role="img" aria-label="TexCan Capital logo">
  <title>TexCan Capital Logo</title>
  <path d="M 1687,1573 L 1687,1575 L 1688,1576 L 1708,1576 L 1708,1572 L 1707,1571 L 1689,1571 Z M 1667,1572 L 1667,1576 L 1683,1576 L 1684,1575 L 1684,1573 L 1682,1571 L 1668,1571 Z M 731,1572 L 731,1576 L 748,1576 L 748,1572 L 747,1571 L 732,1571 Z M 1723,1555 L 1723,1560 L 1732,1560 L 1732,1555 Z M 883,1555 L 883,1560 L 888,1560 L 888,1555 Z M 1515,1549 L 1515,1551 L 1516,1552 L 1535,1552 L 1536,1551 L 1536,1549 L 1534,1547 L 1517,1547 Z M 895,1548 L 895,1552 L 907,1552 L 908,1551 L 908,1549 L 907,1548 L 907,1547 L 896,1547 Z M 1235,1531 L 1235,1536 L 1240,1536 L 1240,1531 Z M 683,1531 L 683,1536 L 687,1536 L 688,1535 L 688,1531 Z M 1035,1523 L 1035,1548 L 1039,1548 L 1040,1547 L 1040,1524 L 1039,1523 Z M 859,1523 L 859,1528 L 863,1528 L 864,1529 L 865,1529 L 866,1528 L 867,1528 L 867,1527 L 868,1526 L 868,1524 L 867,1523 Z M 1372,1515 L 1371,1516 L 1371,1543 L 1372,1544 L 1376,1544 L 1376,1515 Z M 1815,1516 L 1816,1532 L 2156,1531 L 2152,1529 L 2149,1531 L 1831,1530 L 1823,1532 L 1820,1530 L 1817,1523 L 1819,1516 L 1824,1514 L 1824,1512 L 1820,1511 Z M 239,1516 L 240,1532 L 584,1531 L 584,1527 L 580,1528 L 578,1531 L 246,1531 L 240,1525 L 243,1515 L 249,1514 L 247,1511 L 244,1511 Z M 1643,1507 L 1643,1510 L 1642,1511 L 1642,1512 L 1643,1513 L 1643,1516 L 1647,1516 L 1648,1515 L 1648,1508 L 1647,1507 Z M 1100,1507 L 1096,1507 L 1095,1508 L 1095,1509 L 1093,1511 L 1091,1511 L 1091,1512 L 1090,1513 L 1091,1514 L 1091,1515 L 1092,1516 L 1095,1516 L 1096,1515 L 1096,1514 L 1098,1512 L 1099,1512 L 1100,1511 Z M 716,1503 L 715,1504 L 715,1513 L 713,1515 L 712,1515 L 712,1516 L 711,1517 L 711,1518 L 712,1519 L 712,1520 L 713,1520 L 715,1522 L 715,1527 L 716,1528 L 720,1528 L 720,1509 L 721,1508 L 721,1506 L 720,1505 L 720,1504 L 719,1503 Z M 1543,1499 L 1543,1504 L 1548,1504 L 1548,1499 Z M 683,1499 L 683,1502 L 682,1503 L 682,1504 L 683,1505 L 683,1508 L 687,1508 L 688,1507 L 688,1500 L 687,1499 Z M 1371,1493 L 1371,1495 L 1372,1496 L 1373,1496 L 1375,1498 L 1375,1499 L 1376,1500 L 1383,1500 L 1383,1499 L 1386,1496 L 1392,1496 L 1392,1492 L 1391,1491 L 1373,1491 Z M 1323,1492 L 1323,1496 L 1339,1496 L 1340,1497 L 1341,1497 L 1342,1496 L 1343,1496 L 1344,1495 L 1344,1493 L 1342,1491 L 1324,1491 Z M 931,1491 L 931,1495 L 932,1496 L 936,1496 L 936,1491 Z M 1676,1475 L 1675,1476 L 1675,1543 L 1676,1544 L 1677,1544 L 1679,1546 L 1679,1547 L 1680,1548 L 1682,1548 L 1686,1544 L 1688,1544 L 1688,1536 L 1687,1535 L 1686,1535 L 1681,1530 L 1681,1529 L 1684,1527 L 1684,1512 L 1683,1511 L 1682,1511 L 1680,1509 L 1680,1506 L 1682,1504 L 1683,1504 L 1684,1503 L 1684,1476 L 1683,1475 Z M 1303,1475 L 1303,1480 L 1312,1480 L 1312,1475 Z M 1652,1471 L 1651,1472 L 1651,1567 L 1652,1568 L 1715,1568 L 1716,1567 L 1716,1547 L 1712,1547 L 1709,1551 L 1674,1551 L 1672,1549 L 1672,1541 L 1671,1539 L 1668,1537 L 1668,1534 L 1671,1532 L 1672,1530 L 1672,1496 L 1668,1493 L 1668,1489 L 1669,1488 L 1668,1487 L 1668,1484 L 1669,1483 L 1668,1482 L 1668,1478 L 1670,1476 L 1672,1476 L 1672,1471 Z M 1504,1471 L 1503,1472 L 1503,1481 L 1499,1484 L 1499,1489 L 1495,1492 L 1496,1496 L 1494,1499 L 1492,1498 L 1492,1492 L 1491,1491 L 1487,1491 L 1486,1495 L 1487,1500 L 1489,1500 L 1491,1502 L 1491,1505 L 1489,1507 L 1487,1507 L 1487,1513 L 1483,1516 L 1483,1525 L 1479,1528 L 1479,1533 L 1475,1536 L 1475,1541 L 1471,1544 L 1471,1553 L 1467,1556 L 1467,1567 L 1468,1568 L 1483,1568 L 1486,1564 L 1488,1564 L 1488,1557 L 1489,1556 L 1491,1557 L 1492,1560 L 1496,1560 L 1496,1558 L 1498,1556 L 1503,1556 L 1506,1552 L 1512,1551 L 1512,1549 L 1510,1547 L 1497,1547 L 1495,1549 L 1495,1553 L 1493,1554 L 1492,1553 L 1492,1546 L 1494,1544 L 1537,1544 L 1539,1546 L 1539,1551 L 1543,1554 L 1543,1563 L 1548,1568 L 1563,1568 L 1564,1567 L 1564,1556 L 1560,1553 L 1560,1544 L 1556,1541 L 1556,1536 L 1552,1533 L 1552,1528 L 1548,1525 L 1548,1520 L 1544,1517 L 1544,1511 L 1542,1511 L 1540,1509 L 1540,1501 L 1536,1497 L 1536,1492 L 1532,1489 L 1532,1484 L 1528,1481 L 1528,1476 L 1523,1471 Z M 1509,1508 L 1511,1510 L 1511,1513 L 1509,1515 L 1508,1514 L 1508,1513 L 1507,1512 L 1507,1510 Z M 1513,1496 L 1514,1496 L 1515,1497 L 1515,1498 L 1516,1499 L 1516,1500 L 1517,1500 L 1519,1502 L 1519,1508 L 1521,1508 L 1523,1510 L 1523,1516 L 1525,1516 L 1527,1518 L 1527,1523 L 1528,1523 L 1529,1524 L 1530,1524 L 1531,1525 L 1531,1526 L 1530,1527 L 1501,1527 L 1500,1526 L 1500,1525 L 1501,1524 L 1502,1524 L 1503,1523 L 1504,1523 L 1504,1517 L 1505,1516 L 1506,1516 L 1507,1517 L 1507,1518 L 1508,1519 L 1508,1520 L 1509,1520 L 1510,1521 L 1511,1521 L 1512,1520 L 1515,1520 L 1516,1519 L 1516,1514 L 1517,1513 L 1517,1510 L 1516,1509 L 1516,1507 L 1514,1507 L 1512,1505 L 1512,1497 Z M 1320,1471 L 1319,1472 L 1319,1487 L 1320,1488 L 1345,1488 L 1347,1490 L 1347,1563 L 1349,1564 L 1352,1568 L 1367,1568 L 1368,1567 L 1368,1490 L 1370,1488 L 1395,1488 L 1396,1486 L 1400,1483 L 1400,1472 L 1399,1471 Z M 1212,1471 L 1211,1472 L 1211,1567 L 1212,1568 L 1231,1568 L 1232,1567 L 1232,1472 L 1231,1471 Z M 1103,1471 L 1044,1471 L 1043,1472 L 1043,1567 L 1044,1568 L 1063,1568 L 1064,1567 L 1064,1542 L 1066,1540 L 1091,1540 L 1094,1536 L 1107,1536 L 1108,1534 L 1111,1532 L 1118,1524 L 1120,1523 L 1120,1518 L 1124,1515 L 1124,1496 L 1120,1493 L 1120,1484 L 1118,1483 L 1111,1475 L 1106,1475 Z M 1064,1490 L 1066,1488 L 1094,1488 L 1095,1489 L 1095,1490 L 1094,1491 L 1076,1491 L 1075,1492 L 1075,1496 L 1081,1496 L 1084,1499 L 1084,1500 L 1091,1500 L 1091,1499 L 1094,1496 L 1095,1496 L 1096,1495 L 1096,1494 L 1098,1492 L 1101,1492 L 1103,1494 L 1103,1513 L 1101,1515 L 1100,1515 L 1100,1516 L 1097,1519 L 1086,1519 L 1084,1517 L 1084,1514 L 1085,1513 L 1084,1512 L 1084,1511 L 1080,1511 L 1079,1512 L 1079,1513 L 1077,1515 L 1076,1515 L 1075,1516 L 1075,1521 L 1073,1523 L 1066,1523 L 1064,1521 Z M 896,1471 L 895,1472 L 895,1477 L 891,1480 L 891,1485 L 887,1488 L 887,1497 L 884,1499 L 884,1501 L 882,1503 L 880,1502 L 879,1499 L 875,1499 L 875,1504 L 877,1504 L 879,1506 L 879,1513 L 875,1516 L 875,1521 L 871,1524 L 871,1529 L 867,1532 L 866,1535 L 867,1541 L 863,1544 L 863,1549 L 859,1552 L 859,1557 L 855,1560 L 855,1567 L 856,1568 L 875,1568 L 876,1567 L 876,1562 L 880,1558 L 880,1550 L 886,1544 L 914,1544 L 915,1545 L 911,1549 L 912,1552 L 917,1552 L 920,1556 L 927,1556 L 928,1555 L 928,1549 L 930,1548 L 931,1549 L 931,1555 L 935,1558 L 935,1563 L 940,1568 L 955,1568 L 956,1567 L 956,1556 L 952,1553 L 952,1548 L 948,1545 L 948,1536 L 944,1533 L 944,1527 L 942,1527 L 940,1525 L 940,1522 L 942,1520 L 948,1520 L 948,1515 L 942,1514 L 940,1515 L 938,1519 L 936,1518 L 936,1511 L 934,1511 L 932,1509 L 933,1504 L 932,1500 L 928,1497 L 928,1493 L 924,1489 L 924,1484 L 920,1481 L 920,1476 L 915,1471 Z M 920,1523 L 919,1524 L 919,1525 L 917,1527 L 893,1527 L 892,1526 L 892,1525 L 893,1524 L 914,1524 L 916,1522 L 916,1521 L 917,1520 L 918,1520 L 919,1521 L 919,1522 Z M 905,1492 L 906,1492 L 907,1493 L 907,1499 L 908,1500 L 909,1500 L 911,1502 L 911,1507 L 912,1508 L 913,1508 L 915,1510 L 915,1515 L 916,1516 L 915,1517 L 915,1518 L 914,1519 L 912,1517 L 912,1512 L 911,1511 L 910,1511 L 908,1509 L 908,1507 L 904,1507 L 903,1508 L 903,1511 L 904,1512 L 905,1512 L 907,1514 L 907,1517 L 906,1518 L 905,1518 L 903,1516 L 903,1515 L 902,1515 L 900,1513 L 900,1506 L 902,1504 L 903,1504 L 904,1503 L 904,1501 L 905,1500 L 904,1499 L 904,1497 L 903,1496 L 903,1495 L 904,1494 L 904,1493 Z M 720,1471 L 717,1475 L 712,1475 L 695,1492 L 695,1497 L 691,1501 L 691,1513 L 687,1516 L 687,1523 L 691,1526 L 691,1539 L 695,1542 L 695,1547 L 708,1560 L 713,1560 L 716,1564 L 721,1564 L 724,1568 L 755,1568 L 758,1564 L 767,1564 L 778,1552 L 780,1552 L 780,1547 L 778,1547 L 771,1539 L 764,1539 L 757,1547 L 748,1547 L 745,1551 L 733,1551 L 733,1548 L 740,1547 L 740,1543 L 738,1543 L 735,1539 L 724,1539 L 721,1543 L 719,1539 L 712,1533 L 712,1525 L 708,1521 L 708,1514 L 711,1512 L 712,1502 L 717,1496 L 720,1500 L 727,1500 L 730,1496 L 744,1496 L 743,1491 L 730,1491 L 728,1489 L 729,1488 L 753,1488 L 756,1492 L 761,1492 L 764,1496 L 771,1496 L 778,1488 L 780,1488 L 780,1483 L 778,1483 L 775,1479 L 770,1479 L 763,1471 L 750,1471 L 747,1467 L 736,1467 L 733,1471 Z M 1739,1369 L 1739,1370 L 1740,1371 L 1740,1372 L 1815,1372 L 1816,1371 L 1816,1369 L 1800,1369 L 1799,1368 L 1798,1368 L 1797,1369 L 1746,1369 L 1745,1368 L 1742,1368 L 1741,1369 Z M 1425,1369 L 1424,1369 L 1423,1368 L 1418,1368 L 1417,1369 L 1411,1369 L 1410,1370 L 1406,1370 L 1405,1371 L 1404,1371 L 1403,1372 L 1423,1372 L 1424,1371 L 1424,1370 Z M 1334,1369 L 1335,1370 L 1335,1371 L 1336,1372 L 1355,1372 L 1354,1371 L 1353,1371 L 1352,1370 L 1349,1370 L 1348,1369 L 1342,1369 L 1341,1368 L 1336,1368 L 1335,1369 Z M 1555,1367 L 1555,1371 L 1556,1372 L 1611,1372 L 1612,1371 L 1612,1369 L 1610,1369 L 1609,1368 L 1569,1368 L 1568,1369 L 1561,1369 L 1560,1368 L 1556,1368 Z M 1440,1365 L 1435,1365 L 1434,1366 L 1432,1366 L 1430,1368 L 1439,1368 L 1440,1367 Z M 1322,1365 L 1323,1366 L 1323,1367 L 1324,1368 L 1331,1368 L 1327,1364 L 1326,1364 L 1325,1365 Z M 1899,1360 L 1899,1371 L 1900,1372 L 1975,1372 L 1976,1371 L 1976,1370 L 1978,1368 L 1979,1368 L 1980,1367 L 1980,1360 L 1979,1359 L 1975,1359 L 1975,1360 L 1976,1361 L 1976,1364 L 1978,1366 L 1978,1368 L 1977,1369 L 1961,1369 L 1960,1368 L 1917,1368 L 1916,1369 L 1905,1369 L 1904,1368 L 1902,1368 L 1899,1366 L 1899,1364 L 1901,1362 L 1902,1362 L 1903,1359 L 1900,1359 Z M 1815,1359 L 1815,1360 L 1816,1361 L 1816,1364 L 1818,1366 L 1818,1367 L 1819,1368 L 1820,1367 L 1820,1360 L 1819,1359 Z M 1724,1359 L 1723,1360 L 1723,1367 L 1724,1368 L 1725,1368 L 1728,1371 L 1728,1372 L 1735,1372 L 1735,1371 L 1736,1370 L 1735,1369 L 1727,1369 L 1726,1368 L 1726,1366 L 1727,1365 L 1727,1364 L 1728,1363 L 1728,1359 Z M 1456,1359 L 1455,1359 L 1454,1360 L 1453,1359 L 1451,1361 L 1451,1362 L 1449,1364 L 1455,1364 L 1456,1363 Z M 1302,1357 L 1303,1358 L 1303,1359 L 1304,1360 L 1309,1360 L 1311,1362 L 1311,1363 L 1312,1364 L 1319,1364 L 1315,1360 L 1314,1360 L 1313,1361 L 1312,1360 L 1311,1361 L 1310,1361 L 1308,1359 L 1308,1358 L 1307,1357 Z M 1567,1358 L 1569,1358 L 1570,1359 L 1572,1359 L 1574,1357 L 1574,1355 L 1569,1355 L 1567,1357 Z M 763,1355 L 763,1360 L 768,1360 L 768,1355 Z M 1925,1351 L 1924,1351 L 1923,1352 L 1923,1353 L 1921,1355 L 1916,1355 L 1915,1356 L 1915,1358 L 1916,1358 L 1917,1359 L 1919,1359 L 1920,1358 L 1920,1357 L 1921,1356 L 1921,1355 L 1922,1354 L 1924,1354 L 1925,1353 Z M 1387,1354 L 1389,1354 L 1390,1355 L 1392,1355 L 1393,1354 L 1395,1354 L 1396,1353 L 1399,1353 L 1401,1351 L 1388,1351 L 1387,1352 Z M 1358,1351 L 1360,1353 L 1362,1353 L 1363,1354 L 1366,1354 L 1367,1355 L 1369,1355 L 1370,1354 L 1372,1354 L 1372,1352 L 1371,1351 Z M 1789,1347 L 1789,1349 L 1790,1350 L 1791,1350 L 1792,1351 L 1792,1352 L 1794,1354 L 1796,1354 L 1796,1353 L 1797,1352 L 1803,1352 L 1804,1351 L 1804,1347 L 1796,1347 L 1796,1348 L 1795,1349 L 1795,1350 L 1794,1351 L 1793,1351 L 1792,1350 L 1792,1349 L 1791,1348 L 1791,1347 Z M 1619,1347 L 1619,1352 L 1624,1352 L 1624,1347 Z M 1567,1347 L 1567,1351 L 1568,1352 L 1575,1352 L 1576,1351 L 1576,1347 Z M 1406,1350 L 1409,1350 L 1410,1351 L 1411,1351 L 1414,1348 L 1414,1347 L 1408,1347 L 1407,1348 L 1407,1349 Z M 315,1347 L 315,1351 L 316,1352 L 319,1352 L 320,1351 L 320,1347 Z M 307,1347 L 307,1352 L 312,1352 L 312,1348 L 311,1347 Z M 1745,1346 L 1743,1346 L 1743,1353 L 1741,1355 L 1740,1355 L 1739,1356 L 1739,1358 L 1742,1358 L 1742,1357 L 1747,1352 L 1747,1351 L 1746,1350 L 1746,1348 L 1745,1347 Z M 1108,1343 L 1104,1343 L 1103,1344 L 1103,1345 L 1101,1347 L 1099,1347 L 1099,1351 L 1100,1352 L 1106,1352 L 1107,1351 L 1108,1351 Z M 1460,1340 L 1459,1340 L 1458,1341 L 1458,1342 L 1456,1344 L 1457,1345 L 1457,1348 L 1459,1348 L 1460,1347 Z M 711,1339 L 711,1343 L 712,1344 L 723,1344 L 724,1343 L 724,1339 Z M 1616,1333 L 1615,1334 L 1614,1334 L 1612,1336 L 1612,1339 L 1613,1340 L 1613,1341 L 1614,1340 L 1615,1340 L 1616,1339 Z M 1319,1331 L 1319,1333 L 1321,1335 L 1323,1335 L 1324,1336 L 1324,1337 L 1325,1338 L 1329,1338 L 1331,1340 L 1331,1342 L 1332,1343 L 1336,1343 L 1340,1347 L 1345,1347 L 1347,1349 L 1347,1350 L 1348,1351 L 1349,1351 L 1350,1350 L 1352,1350 L 1352,1348 L 1351,1347 L 1346,1347 L 1344,1345 L 1344,1344 L 1343,1343 L 1338,1343 L 1336,1341 L 1336,1340 L 1335,1339 L 1330,1339 L 1328,1337 L 1328,1336 L 1327,1335 L 1326,1335 L 1324,1333 L 1324,1332 L 1323,1331 Z M 1086,1332 L 1086,1333 L 1087,1334 L 1087,1335 L 1088,1336 L 1092,1336 L 1092,1331 L 1087,1331 Z M 1019,1331 L 1019,1336 L 1024,1336 L 1024,1332 L 1023,1331 Z M 2071,1323 L 2071,1327 L 2072,1328 L 2073,1328 L 2075,1330 L 2075,1331 L 2076,1332 L 2077,1332 L 2079,1334 L 2079,1335 L 2080,1336 L 2081,1336 L 2083,1338 L 2083,1343 L 2084,1344 L 2085,1344 L 2087,1346 L 2087,1347 L 2088,1348 L 2089,1348 L 2091,1350 L 2091,1351 L 2092,1352 L 2093,1352 L 2095,1354 L 2095,1355 L 2096,1356 L 2097,1356 L 2099,1358 L 2099,1359 L 2100,1360 L 2101,1360 L 2103,1362 L 2103,1363 L 2104,1364 L 2105,1364 L 2107,1366 L 2107,1367 L 2108,1368 L 2109,1368 L 2111,1370 L 2111,1371 L 2112,1372 L 2115,1372 L 2114,1372 L 2112,1370 L 2111,1370 L 2110,1369 L 2110,1367 L 2107,1364 L 2107,1363 L 2106,1362 L 2106,1361 L 2104,1361 L 2103,1360 L 2103,1358 L 2102,1357 L 2101,1357 L 2099,1355 L 2099,1354 L 2098,1353 L 2098,1352 L 2097,1352 L 2095,1350 L 2095,1349 L 2087,1341 L 2087,1340 L 2086,1339 L 2085,1339 L 2084,1338 L 2083,1338 L 2082,1337 L 2082,1335 L 2079,1332 L 2079,1331 L 2078,1330 L 2078,1329 L 2077,1329 L 2075,1327 L 2075,1325 L 2074,1324 L 2072,1324 Z M 1594,1322 L 1593,1323 L 1592,1323 L 1591,1324 L 1591,1330 L 1592,1329 L 1593,1329 L 1595,1327 L 1595,1323 Z M 1446,1322 L 1445,1323 L 1444,1323 L 1443,1324 L 1443,1325 L 1441,1327 L 1440,1327 L 1439,1328 L 1439,1329 L 1437,1331 L 1436,1331 L 1436,1333 L 1434,1335 L 1433,1335 L 1432,1334 L 1432,1332 L 1431,1331 L 1427,1331 L 1427,1336 L 1430,1336 L 1431,1337 L 1431,1338 L 1433,1338 L 1437,1334 L 1438,1334 L 1439,1333 L 1439,1332 L 1441,1330 L 1442,1330 L 1443,1329 L 1443,1328 L 1446,1325 Z M 1777,1318 L 1777,1319 L 1776,1320 L 1776,1323 L 1777,1324 L 1779,1324 L 1780,1325 L 1780,1320 L 1779,1319 L 1778,1319 Z M 1731,1317 L 1731,1323 L 1732,1324 L 1733,1324 L 1735,1326 L 1735,1331 L 1736,1332 L 1737,1332 L 1738,1333 L 1738,1330 L 1739,1329 L 1739,1328 L 1738,1327 L 1737,1327 L 1735,1325 L 1735,1320 L 1732,1317 Z M 1255,1315 L 1255,1319 L 1256,1320 L 1257,1320 L 1259,1322 L 1259,1323 L 1260,1324 L 1261,1324 L 1263,1326 L 1263,1327 L 1264,1328 L 1265,1328 L 1265,1326 L 1264,1326 L 1263,1325 L 1263,1324 L 1262,1323 L 1262,1321 L 1261,1321 L 1259,1319 L 1259,1316 L 1258,1315 Z M 1461,1311 L 1461,1315 L 1463,1317 L 1463,1318 L 1462,1319 L 1462,1320 L 1461,1321 L 1461,1322 L 1460,1323 L 1460,1325 L 1461,1326 L 1461,1328 L 1463,1328 L 1464,1327 L 1464,1312 L 1463,1311 Z M 1628,1305 L 1627,1305 L 1624,1308 L 1624,1311 L 1625,1312 L 1625,1313 L 1626,1312 L 1627,1312 L 1628,1311 Z M 1595,1303 L 1595,1308 L 1597,1308 L 1599,1310 L 1599,1311 L 1600,1312 L 1601,1311 L 1602,1311 L 1602,1307 L 1601,1307 L 1600,1306 L 1600,1304 L 1599,1303 Z M 599,1299 L 599,1304 L 604,1304 L 604,1300 L 603,1299 Z M 1724,1297 L 1723,1297 L 1723,1301 L 1721,1303 L 1719,1303 L 1719,1308 L 1723,1308 L 1724,1307 L 1724,1305 L 1725,1304 L 1726,1304 L 1726,1302 L 1727,1301 L 1727,1300 Z M 991,1291 L 991,1296 L 996,1296 L 996,1291 Z M 1765,1290 L 1765,1293 L 1764,1294 L 1764,1295 L 1766,1297 L 1767,1297 L 1768,1298 L 1768,1304 L 1770,1306 L 1772,1306 L 1772,1300 L 1771,1299 L 1770,1299 L 1768,1297 L 1768,1292 L 1767,1291 L 1766,1291 Z M 1722,1292 L 1722,1288 L 1720,1286 L 1719,1286 L 1718,1285 L 1718,1282 L 1717,1281 L 1709,1281 L 1708,1282 L 1707,1281 L 1700,1281 L 1699,1282 L 1637,1282 L 1633,1286 L 1633,1287 L 1632,1288 L 1632,1290 L 1633,1291 L 1633,1293 L 1636,1291 L 1636,1286 L 1638,1284 L 1717,1284 L 1719,1286 L 1719,1291 L 1720,1292 Z M 2096,1279 L 2095,1280 L 2095,1283 L 2094,1284 L 2095,1285 L 2095,1287 L 2096,1288 L 2098,1288 L 2099,1289 L 2100,1289 L 2101,1288 L 2103,1288 L 2103,1287 L 2104,1286 L 2104,1281 L 2103,1280 L 2103,1279 Z M 2027,1275 L 2027,1279 L 2028,1280 L 2029,1280 L 2031,1282 L 2031,1283 L 2032,1284 L 2033,1284 L 2035,1286 L 2035,1287 L 2036,1288 L 2037,1288 L 2039,1290 L 2039,1291 L 2040,1292 L 2041,1292 L 2043,1294 L 2043,1295 L 2044,1296 L 2045,1296 L 2047,1298 L 2047,1299 L 2048,1300 L 2049,1300 L 2051,1302 L 2051,1303 L 2052,1304 L 2053,1304 L 2055,1306 L 2055,1307 L 2056,1308 L 2057,1308 L 2057,1306 L 2056,1306 L 2053,1303 L 2053,1302 L 2052,1302 L 2049,1299 L 2049,1298 L 2048,1298 L 2046,1296 L 2046,1294 L 2045,1293 L 2044,1293 L 2043,1292 L 2043,1291 L 2039,1287 L 2039,1286 L 2037,1284 L 2036,1284 L 2035,1283 L 2035,1282 L 2034,1281 L 2034,1280 L 2033,1280 L 2031,1278 L 2031,1276 L 2030,1276 L 2029,1275 Z M 1239,1274 L 1239,1283 L 1240,1284 L 1242,1284 L 1242,1282 L 1243,1281 L 1243,1280 L 1241,1278 L 1241,1276 L 1240,1275 L 1240,1274 Z M 1618,1270 L 1617,1271 L 1616,1271 L 1615,1272 L 1615,1277 L 1613,1279 L 1612,1279 L 1611,1280 L 1611,1285 L 1609,1287 L 1608,1287 L 1607,1288 L 1607,1293 L 1605,1295 L 1604,1295 L 1603,1296 L 1603,1302 L 1605,1302 L 1605,1301 L 1607,1299 L 1607,1296 L 1609,1294 L 1609,1293 L 1611,1291 L 1611,1286 L 1613,1284 L 1614,1284 L 1615,1283 L 1615,1279 L 1614,1278 L 1615,1277 L 1616,1277 L 1617,1276 L 1618,1276 L 1618,1275 L 1619,1274 L 1618,1273 Z M 1285,1270 L 1285,1271 L 1284,1272 L 1284,1276 L 1286,1278 L 1286,1279 L 1287,1280 L 1288,1280 L 1288,1272 L 1287,1271 L 1286,1271 Z M 1753,1262 L 1752,1263 L 1752,1267 L 1754,1269 L 1755,1269 L 1756,1270 L 1756,1264 L 1755,1263 L 1754,1263 Z M 2058,1251 L 2058,1252 L 2061,1255 L 2061,1256 L 2068,1263 L 2068,1264 L 2072,1268 L 2072,1269 L 2074,1271 L 2075,1271 L 2076,1272 L 2076,1274 L 2077,1275 L 2079,1275 L 2080,1276 L 2080,1272 L 2079,1271 L 2078,1271 L 2076,1269 L 2076,1268 L 2075,1267 L 2074,1267 L 2072,1265 L 2072,1264 L 2071,1263 L 2070,1263 L 2068,1261 L 2068,1260 L 2067,1259 L 2066,1259 L 2064,1257 L 2064,1256 L 2063,1255 L 2062,1255 L 2060,1253 L 2060,1252 L 2059,1251 Z M 1626,1250 L 1625,1251 L 1624,1251 L 1623,1252 L 1623,1257 L 1625,1257 L 1627,1255 L 1627,1253 L 1626,1252 Z M 1644,1260 L 1644,1264 L 1645,1265 L 1648,1265 L 1649,1264 L 1652,1264 L 1653,1265 L 1674,1265 L 1675,1266 L 1676,1265 L 1677,1266 L 1687,1266 L 1688,1265 L 1706,1265 L 1707,1266 L 1709,1266 L 1710,1265 L 1710,1263 L 1661,1263 L 1660,1262 L 1662,1260 L 1663,1260 L 1664,1259 L 1664,1255 L 1654,1255 L 1652,1253 L 1652,1248 L 1649,1251 L 1649,1253 L 1648,1254 L 1648,1256 Z M 1236,1243 L 1235,1244 L 1235,1259 L 1236,1260 L 1238,1260 L 1239,1259 L 1239,1245 L 1238,1244 L 1238,1243 Z M 1745,1242 L 1744,1243 L 1744,1247 L 1747,1250 L 1748,1250 L 1748,1244 L 1747,1243 L 1746,1243 Z M 1699,1237 L 1699,1243 L 1700,1244 L 1701,1244 L 1702,1245 L 1703,1244 L 1703,1240 L 1700,1237 Z M 1991,1234 L 1991,1239 L 1992,1240 L 1993,1240 L 1995,1242 L 1995,1243 L 1996,1244 L 1997,1244 L 1999,1246 L 1999,1247 L 2000,1248 L 2001,1248 L 2003,1250 L 2003,1251 L 2004,1252 L 2005,1252 L 2007,1254 L 2007,1255 L 2008,1256 L 2009,1256 L 2011,1258 L 2011,1259 L 2012,1260 L 2013,1260 L 2015,1262 L 2015,1263 L 2016,1264 L 2017,1264 L 2019,1266 L 2019,1267 L 2020,1268 L 2021,1268 L 2023,1270 L 2023,1271 L 2024,1272 L 2025,1272 L 2022,1269 L 2022,1268 L 2021,1267 L 2021,1266 L 2020,1266 L 2018,1264 L 2018,1263 L 2015,1260 L 2015,1259 L 2010,1254 L 2010,1253 L 2009,1253 L 2007,1251 L 2007,1250 L 2006,1249 L 2006,1248 L 2005,1248 L 2003,1246 L 2003,1245 L 2002,1244 L 2001,1244 L 1999,1242 L 1999,1241 L 1998,1240 L 1997,1240 L 1995,1238 L 1995,1236 L 1994,1235 L 1992,1235 Z M 1284,1230 L 1283,1231 L 1283,1233 L 1282,1234 L 1282,1255 L 1283,1256 L 1283,1258 L 1284,1259 L 1284,1260 Z M 599,1219 L 599,1291 L 598,1292 L 599,1293 L 599,1295 L 600,1296 L 602,1296 L 603,1295 L 604,1295 L 604,1220 L 603,1219 Z M 1691,1218 L 1691,1223 L 1692,1224 L 1693,1224 L 1694,1225 L 1694,1224 L 1695,1223 L 1695,1220 L 1694,1219 L 1693,1219 L 1692,1218 Z M 2027,1216 L 2027,1217 L 2028,1217 L 2029,1218 L 2029,1220 L 2033,1224 L 2033,1225 L 2034,1226 L 2035,1226 L 2036,1227 L 2036,1228 L 2037,1229 L 2037,1230 L 2038,1230 L 2040,1232 L 2040,1233 L 2041,1234 L 2041,1235 L 2043,1235 L 2044,1236 L 2044,1232 L 2043,1231 L 2042,1231 L 2040,1229 L 2040,1228 L 2039,1227 L 2038,1227 L 2036,1225 L 2036,1224 L 2035,1223 L 2034,1223 L 2032,1221 L 2032,1220 L 2031,1219 L 2030,1219 Z M 1242,1214 L 1241,1215 L 1240,1215 L 1239,1216 L 1239,1226 L 1240,1226 L 1240,1225 L 1241,1224 L 1241,1223 L 1242,1222 L 1242,1221 L 1243,1220 L 1243,1215 Z M 1668,1210 L 1666,1210 L 1664,1212 L 1664,1216 L 1665,1217 L 1666,1216 L 1667,1216 L 1668,1215 Z M 1043,1210 L 1042,1210 L 1041,1211 L 1040,1211 L 1039,1212 L 1039,1216 L 1044,1216 L 1044,1211 Z M 1967,1207 L 1967,1211 L 1968,1212 L 1969,1212 L 1971,1214 L 1971,1215 L 1972,1216 L 1973,1216 L 1975,1218 L 1975,1219 L 1976,1220 L 1977,1220 L 1979,1222 L 1979,1223 L 1980,1224 L 1981,1224 L 1983,1226 L 1983,1227 L 1984,1228 L 1985,1228 L 1985,1227 L 1982,1224 L 1982,1223 L 1979,1220 L 1979,1219 L 1978,1218 L 1978,1217 L 1977,1217 L 1975,1215 L 1975,1214 L 1974,1213 L 1973,1213 L 1971,1211 L 1971,1209 L 1970,1208 L 1968,1208 Z M 1672,1207 L 1672,1208 L 1671,1209 L 1671,1215 L 1672,1216 L 1684,1216 L 1684,1209 L 1682,1207 Z M 1288,1207 L 1287,1207 L 1286,1208 L 1286,1209 L 1284,1211 L 1284,1215 L 1285,1216 L 1287,1216 L 1288,1215 Z M 1729,1206 L 1728,1207 L 1728,1211 L 1730,1213 L 1731,1213 L 1732,1214 L 1732,1208 L 1731,1207 L 1730,1207 Z M 940,1205 L 939,1204 L 939,1203 L 938,1203 L 937,1202 L 935,1202 L 934,1203 L 931,1203 L 931,1208 L 939,1208 L 940,1207 Z M 1003,1195 L 1003,1200 L 1008,1200 L 1008,1195 Z M 1055,1194 L 1054,1194 L 1053,1195 L 1052,1195 L 1051,1196 L 1051,1200 L 1056,1200 L 1056,1195 Z M 1253,1191 L 1252,1191 L 1252,1192 L 1249,1195 L 1248,1195 L 1247,1196 L 1247,1201 L 1248,1201 L 1249,1200 L 1250,1200 L 1251,1199 L 1251,1195 L 1253,1193 Z M 1679,1189 L 1679,1195 L 1680,1196 L 1681,1196 L 1682,1197 L 1683,1196 L 1683,1192 L 1680,1189 Z M 1676,1188 L 1675,1188 L 1674,1189 L 1674,1190 L 1672,1192 L 1672,1196 L 1673,1197 L 1674,1196 L 1675,1196 L 1676,1195 Z M 919,1187 L 919,1192 L 924,1192 L 924,1187 Z M 1950,1186 L 1948,1191 L 1948,1197 L 1949,1198 L 1948,1199 L 1949,1200 L 1949,1348 L 1950,1350 L 1952,1351 L 1952,1200 L 1953,1199 L 1952,1198 L 1952,1193 L 1953,1191 L 1952,1190 L 1952,1188 Z M 1654,1186 L 1653,1187 L 1652,1187 L 1651,1188 L 1651,1193 L 1652,1193 L 1653,1192 L 1654,1192 L 1655,1191 L 1655,1189 L 1654,1188 Z M 1717,1178 L 1717,1181 L 1716,1182 L 1716,1183 L 1717,1184 L 1718,1184 L 1720,1186 L 1720,1191 L 1723,1194 L 1724,1194 L 1724,1188 L 1723,1187 L 1722,1187 L 1720,1185 L 1720,1180 L 1719,1179 L 1718,1179 Z M 1990,1175 L 1990,1176 L 1993,1179 L 1993,1180 L 1997,1184 L 1997,1185 L 1998,1186 L 1999,1186 L 2000,1187 L 2000,1188 L 2001,1189 L 2001,1190 L 2002,1190 L 2004,1192 L 2004,1193 L 2005,1194 L 2006,1194 L 2009,1197 L 2009,1198 L 2018,1207 L 2018,1208 L 2022,1212 L 2027,1212 L 2028,1211 L 2028,1204 L 2027,1203 L 2026,1203 L 2024,1201 L 2024,1200 L 2023,1199 L 2022,1199 L 2020,1197 L 2020,1196 L 2019,1195 L 2010,1195 L 2008,1193 L 2008,1192 L 2007,1191 L 2006,1191 L 2004,1189 L 2004,1188 L 2003,1187 L 2002,1187 L 2000,1185 L 2000,1184 L 1999,1183 L 1998,1183 L 1996,1181 L 1996,1180 L 1995,1179 L 1994,1179 L 1992,1177 L 1992,1176 L 1991,1175 Z M 1456,1162 L 1456,1163 L 1455,1164 L 1455,1166 L 1454,1167 L 1454,1173 L 1453,1174 L 1453,1186 L 1452,1187 L 1452,1194 L 1453,1195 L 1453,1196 L 1455,1196 L 1456,1195 Z M 1414,1161 L 1415,1162 L 1415,1163 L 1416,1164 L 1417,1164 L 1419,1166 L 1419,1167 L 1420,1168 L 1421,1168 L 1423,1170 L 1423,1171 L 1424,1172 L 1425,1172 L 1427,1174 L 1427,1175 L 1428,1176 L 1429,1176 L 1431,1178 L 1431,1179 L 1432,1180 L 1433,1180 L 1434,1181 L 1434,1177 L 1433,1177 L 1431,1175 L 1431,1173 L 1426,1168 L 1425,1168 L 1424,1167 L 1424,1166 L 1422,1164 L 1421,1164 L 1418,1161 Z M 1280,1159 L 1276,1159 L 1275,1160 L 1275,1161 L 1273,1163 L 1272,1163 L 1271,1164 L 1271,1165 L 1269,1167 L 1268,1167 L 1267,1168 L 1267,1169 L 1265,1171 L 1264,1171 L 1263,1172 L 1263,1176 L 1264,1176 L 1265,1175 L 1266,1175 L 1267,1174 L 1267,1173 L 1269,1171 L 1270,1171 L 1270,1170 L 1271,1169 L 1271,1168 L 1272,1167 L 1273,1167 L 1274,1166 L 1275,1166 L 1275,1165 L 1277,1163 L 1278,1163 L 1279,1162 L 1279,1161 L 1280,1160 Z M 383,1160 L 383,1164 L 396,1164 L 396,1160 L 395,1159 L 384,1159 Z M 903,1155 L 903,1160 L 908,1160 L 908,1156 L 907,1155 Z M 1336,1153 L 1332,1153 L 1331,1154 L 1331,1155 L 1329,1157 L 1328,1156 L 1324,1156 L 1323,1157 L 1323,1158 L 1320,1161 L 1317,1161 L 1316,1162 L 1316,1163 L 1315,1164 L 1314,1164 L 1313,1165 L 1312,1165 L 1312,1166 L 1310,1168 L 1309,1168 L 1308,1169 L 1308,1170 L 1306,1172 L 1305,1172 L 1305,1173 L 1304,1174 L 1304,1175 L 1302,1177 L 1301,1177 L 1301,1178 L 1300,1179 L 1300,1181 L 1299,1182 L 1298,1182 L 1298,1184 L 1299,1184 L 1300,1183 L 1300,1182 L 1302,1180 L 1303,1180 L 1304,1179 L 1304,1178 L 1306,1176 L 1307,1176 L 1308,1175 L 1308,1174 L 1310,1172 L 1311,1172 L 1312,1171 L 1312,1170 L 1314,1168 L 1315,1168 L 1316,1167 L 1316,1166 L 1318,1164 L 1319,1164 L 1320,1163 L 1320,1162 L 1322,1160 L 1327,1160 L 1328,1159 L 1328,1158 L 1330,1156 L 1335,1156 L 1336,1155 Z M 1292,1151 L 1288,1151 L 1287,1152 L 1287,1153 L 1285,1155 L 1284,1155 L 1283,1156 L 1283,1157 L 1285,1157 L 1288,1154 L 1291,1154 L 1291,1152 Z M 1705,1150 L 1704,1151 L 1704,1155 L 1706,1157 L 1708,1157 L 1708,1152 L 1707,1151 L 1706,1151 Z M 1670,1150 L 1669,1151 L 1668,1151 L 1667,1152 L 1667,1157 L 1668,1157 L 1669,1156 L 1670,1156 L 1671,1155 L 1671,1152 L 1670,1151 Z M 1379,1149 L 1379,1151 L 1380,1152 L 1390,1152 L 1390,1151 L 1389,1151 L 1388,1150 L 1386,1150 L 1384,1148 L 1382,1148 L 1381,1149 Z M 1360,1149 L 1358,1149 L 1357,1148 L 1355,1148 L 1354,1149 L 1351,1149 L 1350,1150 L 1347,1150 L 1346,1151 L 1345,1151 L 1344,1152 L 1359,1152 L 1360,1151 Z M 2095,1145 L 2096,1148 L 2101,1148 L 2107,1154 L 2107,1295 L 2106,1296 L 2107,1297 L 2107,1302 L 2105,1303 L 2103,1299 L 2090,1287 L 2100,1300 L 2105,1304 L 2105,1306 L 2110,1310 L 2110,1288 L 2111,1287 L 2111,1260 L 2110,1259 L 2111,1179 L 2110,1178 L 2110,1156 L 2107,1153 L 2106,1148 L 2103,1148 L 2100,1145 Z M 2148,1145 L 2146,1145 L 2145,1144 L 2144,1144 L 2143,1145 L 2141,1145 L 2140,1146 L 2139,1146 L 2138,1147 L 2138,1148 L 2137,1149 L 2134,1149 L 2134,1150 L 2133,1151 L 2133,1152 L 2135,1152 L 2136,1151 L 2136,1150 L 2138,1148 L 2147,1148 L 2148,1147 Z M 1958,1139 L 1959,1140 L 1959,1141 L 1960,1142 L 1960,1143 L 1961,1144 L 1961,1145 L 1962,1146 L 1963,1146 L 1964,1147 L 1964,1148 L 1965,1149 L 1965,1150 L 1966,1150 L 1968,1152 L 1968,1153 L 1969,1154 L 1970,1154 L 1972,1156 L 1972,1157 L 1976,1161 L 1976,1162 L 1977,1163 L 1978,1163 L 1980,1165 L 1980,1166 L 1981,1167 L 1982,1167 L 1983,1168 L 1984,1168 L 1984,1164 L 1983,1163 L 1982,1163 L 1980,1161 L 1980,1160 L 1979,1159 L 1978,1159 L 1976,1157 L 1976,1156 L 1975,1155 L 1974,1155 L 1972,1153 L 1972,1152 L 1971,1151 L 1970,1151 L 1968,1149 L 1968,1148 L 1967,1147 L 1966,1147 L 1964,1145 L 1964,1144 L 1963,1143 L 1962,1143 L 1960,1141 L 1960,1140 L 1959,1139 Z M 2080,1135 L 2079,1136 L 2079,1143 L 2080,1144 L 2082,1144 L 2082,1142 L 2083,1141 L 2083,1138 L 2082,1137 L 2082,1135 Z M 1420,1135 L 1424,1139 L 1425,1138 L 1428,1138 L 1428,1136 L 1427,1135 Z M 1318,1138 L 1321,1138 L 1322,1139 L 1324,1139 L 1326,1137 L 1327,1137 L 1329,1135 L 1320,1135 L 1319,1136 L 1319,1137 Z M 883,1136 L 884,1144 L 911,1154 L 971,1249 L 959,1259 L 960,1265 L 966,1260 L 968,1263 L 943,1298 L 931,1296 L 935,1309 L 902,1351 L 895,1347 L 898,1355 L 876,1359 L 876,1368 L 897,1368 L 900,1372 L 935,1372 L 937,1368 L 943,1372 L 948,1359 L 938,1359 L 936,1349 L 952,1352 L 952,1347 L 942,1347 L 940,1342 L 961,1316 L 968,1320 L 964,1309 L 989,1272 L 1035,1341 L 1027,1344 L 1027,1351 L 1039,1358 L 1031,1359 L 1036,1372 L 1042,1368 L 1048,1372 L 1119,1372 L 1124,1368 L 1119,1359 L 1098,1355 L 1064,1309 L 1068,1299 L 1059,1301 L 1024,1250 L 1032,1247 L 1032,1240 L 1024,1238 L 1028,1235 L 1024,1226 L 1058,1184 L 1068,1184 L 1068,1179 L 1060,1177 L 1070,1168 L 1080,1167 L 1076,1157 L 1086,1148 L 1107,1144 L 1107,1135 L 1036,1135 L 1035,1143 L 1045,1144 L 1047,1153 L 1042,1163 L 1039,1159 L 1027,1163 L 1035,1173 L 1030,1179 L 1027,1175 L 1019,1179 L 1019,1184 L 1027,1186 L 1019,1191 L 1002,1219 L 980,1185 L 984,1172 L 978,1170 L 973,1175 L 972,1167 L 964,1161 L 965,1156 L 972,1160 L 972,1148 L 964,1146 L 972,1143 L 971,1135 Z M 961,1148 L 962,1148 L 963,1149 L 963,1154 L 962,1155 L 961,1155 L 960,1154 L 960,1153 L 959,1152 L 959,1151 L 960,1150 L 960,1149 Z M 584,1135 L 584,1144 L 603,1149 L 595,1156 L 599,1200 L 604,1199 L 604,1153 L 608,1155 L 607,1350 L 604,1336 L 599,1335 L 599,1341 L 591,1347 L 595,1357 L 584,1359 L 583,1367 L 588,1372 L 594,1368 L 600,1372 L 651,1372 L 653,1368 L 656,1372 L 751,1372 L 764,1343 L 767,1315 L 756,1315 L 750,1327 L 739,1323 L 739,1328 L 747,1333 L 741,1339 L 731,1335 L 735,1342 L 725,1347 L 656,1346 L 669,1340 L 660,1333 L 660,1318 L 664,1316 L 660,1309 L 664,1304 L 660,1297 L 660,1270 L 672,1264 L 664,1257 L 710,1256 L 688,1259 L 687,1264 L 711,1264 L 714,1260 L 719,1275 L 727,1280 L 732,1276 L 728,1269 L 732,1259 L 732,1220 L 724,1219 L 718,1227 L 715,1223 L 700,1223 L 697,1227 L 662,1223 L 660,1174 L 664,1163 L 655,1164 L 653,1175 L 652,1160 L 648,1158 L 714,1156 L 707,1164 L 724,1168 L 726,1160 L 735,1174 L 735,1183 L 743,1184 L 748,1175 L 748,1136 Z M 653,1328 L 655,1330 L 655,1333 L 654,1334 L 652,1334 L 651,1333 L 651,1330 Z M 653,1268 L 655,1270 L 655,1281 L 654,1282 L 654,1286 L 655,1287 L 654,1288 L 654,1300 L 655,1301 L 655,1306 L 654,1307 L 653,1307 L 651,1305 L 651,1303 L 650,1303 L 648,1301 L 648,1297 L 649,1296 L 648,1295 L 648,1288 L 649,1287 L 648,1286 L 648,1282 L 650,1280 L 651,1280 L 651,1279 L 652,1278 L 652,1273 L 651,1272 L 651,1271 L 652,1270 L 652,1269 Z M 648,1233 L 649,1232 L 693,1232 L 695,1234 L 694,1235 L 649,1235 L 648,1234 Z M 653,1192 L 655,1194 L 655,1225 L 654,1226 L 653,1226 L 651,1224 L 651,1223 L 652,1222 L 652,1196 L 651,1195 L 652,1194 L 652,1193 Z M 244,1135 L 243,1149 L 239,1152 L 240,1184 L 247,1184 L 257,1168 L 259,1176 L 263,1176 L 270,1168 L 279,1168 L 284,1164 L 284,1160 L 277,1159 L 277,1156 L 323,1158 L 323,1353 L 313,1359 L 300,1359 L 299,1367 L 325,1368 L 328,1372 L 355,1372 L 358,1368 L 395,1368 L 395,1359 L 378,1359 L 368,1353 L 368,1158 L 414,1156 L 414,1159 L 407,1160 L 407,1164 L 412,1168 L 424,1168 L 426,1160 L 439,1174 L 440,1184 L 451,1184 L 452,1136 Z M 1927,1132 L 1927,1136 L 1930,1136 L 1931,1135 L 1933,1135 L 1934,1134 L 1936,1134 L 1937,1135 L 1943,1135 L 1944,1134 L 1945,1134 L 1946,1135 L 1949,1135 L 1950,1134 L 1952,1134 L 1953,1135 L 1954,1135 L 1955,1136 L 1956,1136 L 1955,1135 L 1954,1135 L 1952,1133 L 1952,1132 L 1951,1131 L 1928,1131 Z M 1675,1132 L 1675,1137 L 1676,1136 L 1678,1136 L 1679,1135 L 1680,1135 L 1681,1134 L 1695,1134 L 1697,1136 L 1697,1138 L 1698,1138 L 1699,1139 L 1700,1139 L 1700,1136 L 1699,1135 L 1698,1135 L 1696,1133 L 1696,1132 L 1695,1131 L 1676,1131 Z M 1392,1131 L 1393,1131 L 1394,1132 L 1396,1132 L 1397,1133 L 1400,1133 L 1401,1134 L 1402,1134 L 1403,1135 L 1405,1135 L 1406,1134 L 1408,1134 L 1408,1132 L 1407,1131 Z M 1339,1134 L 1341,1134 L 1342,1135 L 1344,1135 L 1345,1134 L 1346,1134 L 1347,1133 L 1350,1133 L 1351,1132 L 1352,1132 L 1353,1131 L 1355,1131 L 1340,1131 L 1339,1132 Z M 1076,995 L 1075,996 L 1075,1000 L 1080,1000 L 1080,995 Z M 1489,957 L 1487,957 L 1486,956 L 1482,956 L 1481,957 L 1476,957 L 1475,958 L 1472,958 L 1471,959 L 1469,959 L 1468,960 L 1487,960 L 1488,959 L 1488,958 Z M 1371,957 L 1371,959 L 1372,960 L 1387,960 L 1386,960 L 1385,959 L 1384,959 L 1383,958 L 1379,958 L 1378,957 L 1377,957 L 1376,956 L 1374,956 L 1373,957 Z M 1509,953 L 1506,953 L 1505,952 L 1503,952 L 1502,953 L 1501,953 L 1500,954 L 1498,954 L 1496,956 L 1507,956 L 1508,955 L 1508,954 Z M 1346,953 L 1347,954 L 1347,955 L 1348,956 L 1359,956 L 1357,954 L 1355,954 L 1354,953 L 1353,953 L 1352,952 L 1350,952 L 1349,953 Z M 1525,949 L 1524,949 L 1523,948 L 1519,948 L 1518,949 L 1517,949 L 1516,950 L 1515,950 L 1513,952 L 1523,952 L 1524,951 L 1524,950 Z M 1528,948 L 1535,948 L 1536,947 L 1536,945 L 1531,945 L 1530,946 L 1529,946 L 1528,947 Z M 1318,945 L 1319,946 L 1319,947 L 1320,948 L 1329,948 L 1327,946 L 1326,946 L 1324,944 L 1320,944 L 1319,945 Z M 1172,939 L 1171,940 L 1171,944 L 1176,944 L 1176,939 Z M 1553,940 L 1559,940 L 1560,939 L 1560,938 L 1561,937 L 1555,937 L 1553,939 Z M 1581,929 L 1578,929 L 1577,928 L 1576,929 L 1575,929 L 1575,930 L 1573,932 L 1579,932 L 1580,931 L 1580,930 Z M 1420,923 L 1421,923 L 1422,924 L 1425,924 L 1426,925 L 1444,925 L 1445,924 L 1447,924 L 1448,923 L 1449,923 Z M 1467,922 L 1469,922 L 1470,923 L 1471,923 L 1473,921 L 1474,921 L 1476,919 L 1468,919 L 1467,920 Z M 1483,918 L 1485,918 L 1486,919 L 1487,919 L 1489,917 L 1490,917 L 1490,916 L 1491,915 L 1484,915 L 1483,916 Z M 1251,913 L 1251,915 L 1252,916 L 1253,916 L 1255,918 L 1255,919 L 1256,920 L 1261,920 L 1263,922 L 1263,923 L 1264,924 L 1269,924 L 1271,926 L 1271,927 L 1272,928 L 1277,928 L 1279,930 L 1279,931 L 1280,932 L 1286,932 L 1285,931 L 1285,930 L 1283,928 L 1282,928 L 1281,929 L 1278,929 L 1276,927 L 1276,925 L 1275,924 L 1274,924 L 1273,925 L 1270,925 L 1269,924 L 1269,923 L 1268,922 L 1268,921 L 1267,920 L 1266,920 L 1265,921 L 1264,920 L 1263,920 L 1259,916 L 1256,916 L 1255,915 L 1255,914 L 1254,913 Z M 1367,911 L 1367,912 L 1368,913 L 1369,913 L 1371,915 L 1376,915 L 1377,914 L 1378,915 L 1378,916 L 1379,917 L 1379,918 L 1384,918 L 1384,916 L 1383,915 L 1378,915 L 1376,913 L 1376,912 L 1375,911 Z M 1357,907 L 1357,908 L 1360,911 L 1361,911 L 1362,910 L 1363,911 L 1364,910 L 1365,910 L 1364,909 L 1364,908 L 1363,907 Z M 1235,907 L 1235,912 L 1239,912 L 1240,911 L 1240,909 L 1241,908 L 1242,908 L 1244,910 L 1244,912 L 1248,912 L 1248,910 L 1246,908 L 1245,909 L 1242,906 L 1241,906 L 1240,905 L 1239,905 L 1239,906 L 1238,907 Z M 1592,895 L 1591,896 L 1591,897 L 1590,898 L 1590,901 L 1589,902 L 1589,906 L 1588,907 L 1588,909 L 1589,910 L 1589,912 L 1591,912 L 1592,911 Z M 1015,895 L 1015,899 L 1016,900 L 1017,900 L 1019,902 L 1018,903 L 1015,904 L 1015,915 L 1016,916 L 1017,916 L 1019,918 L 1019,921 L 1017,923 L 1016,923 L 1015,924 L 1015,943 L 1016,944 L 1017,944 L 1019,946 L 1019,949 L 1018,950 L 1018,951 L 1019,952 L 1019,976 L 1023,976 L 1024,975 L 1024,902 L 1025,901 L 1025,899 L 1024,898 L 1024,896 L 1023,895 Z M 1327,891 L 1327,893 L 1329,895 L 1331,895 L 1332,896 L 1333,896 L 1334,897 L 1336,897 L 1336,896 L 1335,895 L 1334,895 L 1332,893 L 1332,892 L 1331,891 Z M 1207,891 L 1207,895 L 1208,896 L 1216,896 L 1216,892 L 1215,891 L 1214,891 L 1213,890 L 1211,890 L 1210,891 Z M 1214,885 L 1216,887 L 1216,888 L 1217,888 L 1219,890 L 1219,891 L 1220,892 L 1221,892 L 1225,896 L 1226,896 L 1227,897 L 1227,898 L 1226,899 L 1219,899 L 1219,907 L 1220,908 L 1223,908 L 1224,907 L 1224,906 L 1226,904 L 1227,904 L 1228,903 L 1228,902 L 1230,900 L 1232,900 L 1231,899 L 1231,897 L 1230,896 L 1229,897 L 1227,895 L 1227,894 L 1226,893 L 1225,893 L 1223,891 L 1222,891 L 1220,889 L 1218,889 L 1216,887 L 1216,886 L 1215,886 Z M 1311,879 L 1311,881 L 1313,883 L 1314,883 L 1317,886 L 1319,886 L 1321,888 L 1322,888 L 1323,889 L 1324,889 L 1324,888 L 1323,887 L 1322,887 L 1320,885 L 1320,884 L 1319,883 L 1318,883 L 1316,881 L 1316,880 L 1315,879 Z M 1148,875 L 1147,876 L 1147,891 L 1148,892 L 1152,892 L 1152,875 Z M 1596,867 L 1594,869 L 1594,873 L 1592,875 L 1592,877 L 1593,878 L 1593,880 L 1595,880 L 1596,879 Z M 1562,863 L 1560,863 L 1559,864 L 1559,865 L 1557,867 L 1556,867 L 1555,868 L 1555,869 L 1553,871 L 1552,871 L 1551,872 L 1551,873 L 1549,875 L 1548,875 L 1547,876 L 1547,877 L 1545,879 L 1544,879 L 1543,880 L 1543,881 L 1541,883 L 1540,883 L 1539,884 L 1539,885 L 1537,887 L 1536,887 L 1535,888 L 1535,889 L 1533,891 L 1532,891 L 1531,892 L 1531,893 L 1529,895 L 1524,895 L 1523,896 L 1523,897 L 1521,899 L 1520,899 L 1519,900 L 1519,901 L 1517,903 L 1512,903 L 1511,904 L 1511,905 L 1509,907 L 1504,907 L 1503,908 L 1503,909 L 1501,911 L 1496,911 L 1494,914 L 1500,914 L 1500,913 L 1502,910 L 1503,911 L 1504,911 L 1505,910 L 1506,911 L 1507,911 L 1508,910 L 1508,909 L 1510,907 L 1515,907 L 1516,906 L 1516,904 L 1518,902 L 1522,902 L 1525,899 L 1527,899 L 1528,898 L 1528,896 L 1530,894 L 1532,894 L 1534,892 L 1535,892 L 1537,890 L 1538,890 L 1539,889 L 1539,888 L 1541,886 L 1542,886 L 1544,883 L 1545,883 L 1549,879 L 1550,879 L 1551,878 L 1551,876 L 1552,875 L 1553,875 L 1557,870 L 1558,870 L 1559,867 L 1561,865 L 1561,864 Z M 1282,851 L 1282,852 L 1285,855 L 1285,856 L 1286,857 L 1286,858 L 1287,858 L 1288,859 L 1288,860 L 1290,862 L 1291,862 L 1292,863 L 1292,864 L 1294,866 L 1295,866 L 1299,870 L 1300,870 L 1301,871 L 1301,872 L 1302,872 L 1303,873 L 1304,873 L 1308,877 L 1308,876 L 1307,875 L 1306,875 L 1304,873 L 1304,872 L 1303,871 L 1302,871 L 1300,869 L 1300,868 L 1299,867 L 1298,867 L 1296,865 L 1296,864 L 1295,863 L 1294,863 L 1292,861 L 1292,860 L 1291,859 L 1290,859 L 1288,857 L 1288,856 L 1287,855 L 1286,855 L 1284,853 L 1284,852 L 1283,851 Z M 1179,848 L 1179,851 L 1180,852 L 1181,852 L 1183,854 L 1183,855 L 1184,856 L 1185,856 L 1187,858 L 1187,864 L 1192,864 L 1192,861 L 1191,860 L 1191,859 L 1189,859 L 1188,858 L 1187,858 L 1186,857 L 1186,856 L 1185,855 L 1185,854 L 1183,852 L 1183,851 L 1182,850 L 1182,849 L 1181,849 L 1180,848 Z M 1578,839 L 1576,839 L 1575,840 L 1575,841 L 1573,843 L 1572,843 L 1571,844 L 1571,849 L 1569,851 L 1568,851 L 1567,852 L 1567,855 L 1568,855 L 1569,854 L 1570,855 L 1570,850 L 1572,848 L 1574,848 L 1575,847 L 1575,844 L 1577,842 L 1577,841 L 1578,840 Z M 1600,836 L 1599,837 L 1599,838 L 1598,839 L 1598,841 L 1597,842 L 1597,848 L 1596,849 L 1596,855 L 1597,856 L 1597,857 L 1598,856 L 1599,856 L 1600,855 Z M 1269,834 L 1269,837 L 1272,840 L 1272,841 L 1273,842 L 1273,843 L 1275,843 L 1276,844 L 1276,840 L 1275,839 L 1274,839 L 1272,837 L 1272,836 L 1271,835 L 1270,835 Z M 1167,831 L 1167,835 L 1168,836 L 1169,836 L 1171,838 L 1171,839 L 1172,840 L 1174,840 L 1174,839 L 1173,838 L 1173,837 L 1171,835 L 1171,833 L 1170,832 L 1169,832 L 1168,831 Z M 1583,824 L 1583,826 L 1584,827 L 1585,826 L 1586,827 L 1588,827 L 1590,825 L 1593,825 L 1595,827 L 1599,827 L 1600,828 L 1600,824 L 1599,823 L 1584,823 Z M 1254,811 L 1254,813 L 1256,815 L 1256,819 L 1257,820 L 1260,820 L 1260,816 L 1259,815 L 1258,815 L 1256,813 L 1256,812 L 1255,811 Z M 1147,812 L 1147,814 L 1146,815 L 1146,816 L 1147,817 L 1147,821 L 1145,823 L 1144,823 L 1143,824 L 1143,826 L 1144,827 L 1144,828 L 1145,828 L 1148,831 L 1148,832 L 1155,832 L 1155,831 L 1158,828 L 1159,828 L 1159,827 L 1160,826 L 1160,825 L 1161,824 L 1162,824 L 1163,825 L 1163,826 L 1164,827 L 1164,828 L 1166,828 L 1166,826 L 1162,822 L 1162,820 L 1160,818 L 1160,817 L 1159,816 L 1159,815 L 1158,814 L 1158,813 L 1156,811 L 1148,811 Z M 1136,795 L 1135,796 L 1135,808 L 1147,808 L 1147,807 L 1148,806 L 1148,801 L 1147,800 L 1147,799 L 1146,799 L 1144,797 L 1144,796 L 1143,795 Z M 1233,767 L 1233,772 L 1234,772 L 1236,774 L 1236,779 L 1239,782 L 1240,782 L 1240,776 L 1239,775 L 1238,775 L 1237,774 L 1236,774 L 1235,773 L 1236,772 L 1236,768 L 1235,767 Z M 1135,761 L 1135,767 L 1136,768 L 1137,768 L 1138,769 L 1139,768 L 1139,763 L 1137,761 Z M 1229,754 L 1229,756 L 1228,757 L 1228,759 L 1231,762 L 1232,762 L 1232,756 L 1231,755 L 1230,755 Z M 1131,744 L 1131,755 L 1132,756 L 1133,756 L 1134,757 L 1135,756 L 1135,751 L 1134,750 L 1134,749 L 1133,748 L 1133,746 Z M 1225,743 L 1225,746 L 1224,747 L 1227,750 L 1228,750 L 1228,744 L 1227,743 Z M 1221,726 L 1221,727 L 1220,728 L 1220,732 L 1222,734 L 1222,735 L 1224,737 L 1224,728 L 1223,727 L 1222,727 Z M 1127,722 L 1127,735 L 1128,736 L 1130,736 L 1130,734 L 1131,733 L 1131,731 L 1129,729 L 1129,725 L 1128,724 L 1128,723 Z M 1217,711 L 1217,714 L 1216,715 L 1218,717 L 1218,718 L 1219,719 L 1219,720 L 1220,720 L 1220,712 L 1219,711 Z M 1213,679 L 1212,680 L 1212,685 L 1213,686 L 1213,691 L 1214,692 L 1214,694 L 1215,695 L 1215,696 L 1216,697 L 1216,680 L 1215,679 Z M 1124,639 L 1123,640 L 1123,703 L 1124,704 L 1126,704 L 1127,703 L 1127,697 L 1126,696 L 1126,686 L 1125,685 L 1125,661 L 1126,660 L 1126,652 L 1127,651 L 1127,640 L 1126,639 Z M 1130,615 L 1128,615 L 1127,616 L 1127,628 L 1127,627 L 1128,626 L 1128,625 L 1129,624 L 1129,622 L 1130,621 L 1130,620 L 1131,619 L 1131,618 L 1130,617 Z M 1216,601 L 1215,602 L 1215,603 L 1214,604 L 1214,606 L 1213,607 L 1213,610 L 1212,611 L 1212,614 L 1213,615 L 1213,616 L 1215,616 L 1216,615 Z M 1134,595 L 1132,595 L 1131,596 L 1131,604 L 1133,602 L 1133,601 L 1135,599 L 1135,598 L 1134,597 Z M 1220,578 L 1218,580 L 1218,581 L 1217,582 L 1217,583 L 1216,584 L 1216,585 L 1217,586 L 1217,588 L 1219,588 L 1220,587 Z M 1154,538 L 1153,539 L 1152,539 L 1151,540 L 1151,543 L 1150,544 L 1151,545 L 1152,545 L 1153,544 L 1154,544 L 1155,543 L 1155,540 L 1154,539 Z M 1575,529 L 1575,535 L 1576,536 L 1577,536 L 1578,537 L 1578,534 L 1579,533 L 1579,532 L 1577,530 L 1577,529 Z M 1252,503 L 1251,503 L 1250,504 L 1249,504 L 1249,506 L 1248,507 L 1248,509 L 1246,511 L 1246,512 L 1247,512 L 1248,511 L 1247,510 L 1248,509 L 1249,509 L 1250,508 L 1251,508 L 1252,507 Z M 1559,499 L 1559,503 L 1560,504 L 1561,504 L 1563,506 L 1563,507 L 1564,508 L 1566,508 L 1566,507 L 1565,506 L 1565,505 L 1563,503 L 1563,500 L 1562,499 Z M 1178,498 L 1177,499 L 1176,499 L 1175,500 L 1175,501 L 1173,503 L 1172,503 L 1171,504 L 1171,508 L 1174,508 L 1175,507 L 1175,504 L 1178,501 Z M 1268,483 L 1267,483 L 1266,484 L 1265,484 L 1264,485 L 1264,486 L 1260,490 L 1260,491 L 1258,493 L 1257,493 L 1257,495 L 1256,496 L 1256,497 L 1254,499 L 1254,500 L 1255,500 L 1256,499 L 1256,498 L 1258,496 L 1259,496 L 1260,495 L 1260,494 L 1262,492 L 1263,492 L 1264,491 L 1264,490 L 1266,488 L 1267,488 L 1268,487 Z M 1193,479 L 1192,479 L 1191,480 L 1191,481 L 1189,483 L 1188,483 L 1187,484 L 1187,485 L 1185,487 L 1184,487 L 1183,488 L 1183,492 L 1184,491 L 1186,491 L 1187,490 L 1187,488 L 1190,485 L 1190,484 L 1191,483 L 1191,482 L 1192,481 L 1193,481 Z M 1535,474 L 1535,475 L 1536,476 L 1537,476 L 1539,478 L 1539,479 L 1540,480 L 1541,480 L 1543,482 L 1543,483 L 1544,484 L 1545,484 L 1547,486 L 1547,487 L 1548,488 L 1549,488 L 1551,490 L 1551,491 L 1552,492 L 1553,492 L 1555,494 L 1555,495 L 1556,496 L 1557,496 L 1558,497 L 1558,495 L 1557,494 L 1557,493 L 1556,493 L 1555,492 L 1555,491 L 1554,490 L 1554,489 L 1553,489 L 1551,487 L 1551,486 L 1549,484 L 1548,484 L 1547,483 L 1547,482 L 1546,481 L 1545,481 L 1541,477 L 1540,477 L 1539,476 L 1538,476 L 1537,475 L 1537,474 Z M 1522,465 L 1523,466 L 1523,467 L 1524,468 L 1525,468 L 1527,470 L 1527,471 L 1528,472 L 1532,472 L 1532,470 L 1530,468 L 1528,468 L 1527,467 L 1527,466 L 1526,466 L 1525,465 Z M 1292,462 L 1291,462 L 1288,465 L 1286,465 L 1282,469 L 1281,469 L 1278,472 L 1277,472 L 1276,473 L 1276,474 L 1274,476 L 1273,476 L 1272,477 L 1272,478 L 1271,479 L 1271,480 L 1275,480 L 1276,479 L 1276,478 L 1278,476 L 1279,476 L 1280,475 L 1280,474 L 1282,472 L 1283,472 L 1284,471 L 1284,470 L 1286,468 L 1287,468 L 1288,467 L 1288,466 L 1290,464 L 1291,464 L 1292,463 Z M 1216,455 L 1212,455 L 1211,456 L 1211,457 L 1209,459 L 1208,459 L 1207,460 L 1207,461 L 1205,463 L 1204,463 L 1203,464 L 1203,465 L 1201,467 L 1200,467 L 1199,468 L 1199,469 L 1197,471 L 1196,471 L 1195,472 L 1195,477 L 1196,476 L 1198,476 L 1199,475 L 1199,473 L 1201,471 L 1202,471 L 1203,470 L 1203,469 L 1205,467 L 1206,467 L 1207,466 L 1207,465 L 1209,463 L 1210,463 L 1214,459 L 1215,459 L 1216,458 Z M 1304,454 L 1302,454 L 1302,455 L 1301,456 L 1300,456 L 1299,457 L 1296,457 L 1296,459 L 1295,460 L 1299,460 L 1300,459 L 1300,458 L 1302,456 L 1303,456 L 1304,455 Z M 1490,449 L 1491,450 L 1491,451 L 1492,452 L 1497,452 L 1499,454 L 1499,455 L 1500,456 L 1505,456 L 1507,458 L 1507,459 L 1508,460 L 1513,460 L 1515,462 L 1515,463 L 1516,464 L 1520,464 L 1520,462 L 1518,460 L 1515,460 L 1511,456 L 1506,456 L 1505,455 L 1505,454 L 1503,452 L 1499,452 L 1495,448 L 1492,448 L 1491,449 Z M 1232,443 L 1228,443 L 1227,444 L 1227,445 L 1225,447 L 1224,447 L 1223,448 L 1223,449 L 1221,451 L 1220,451 L 1219,452 L 1219,453 L 1220,453 L 1223,450 L 1225,450 L 1229,446 L 1231,446 L 1231,444 Z M 1470,441 L 1471,442 L 1471,443 L 1472,444 L 1478,444 L 1478,443 L 1475,440 L 1474,440 L 1473,441 Z M 1349,437 L 1347,437 L 1346,436 L 1343,436 L 1342,437 L 1341,437 L 1340,438 L 1339,438 L 1337,440 L 1331,440 L 1330,441 L 1329,441 L 1328,442 L 1327,442 L 1325,444 L 1320,444 L 1317,447 L 1317,448 L 1323,448 L 1324,447 L 1324,446 L 1326,444 L 1335,444 L 1336,443 L 1336,442 L 1338,440 L 1347,440 L 1348,439 L 1348,438 Z M 1435,433 L 1435,435 L 1436,436 L 1449,436 L 1449,435 L 1448,435 L 1447,434 L 1444,434 L 1443,433 L 1441,433 L 1440,432 L 1438,432 L 1437,433 Z M 1369,433 L 1367,433 L 1366,432 L 1362,432 L 1361,433 L 1359,433 L 1358,434 L 1356,434 L 1355,435 L 1354,435 L 1354,436 L 1367,436 L 1368,435 L 1368,434 Z M 1380,432 L 1419,432 L 1418,431 L 1417,431 L 1416,430 L 1384,430 L 1383,431 L 1381,431 Z M 1585,423 L 1585,424 L 1588,427 L 1591,427 L 1592,428 L 1592,431 L 1593,432 L 1593,515 L 1594,516 L 1594,533 L 1592,536 L 1593,537 L 1593,540 L 1595,540 L 1596,539 L 1596,428 L 1594,427 L 1591,423 Z M 1268,419 L 1264,419 L 1263,420 L 1263,421 L 1261,423 L 1260,423 L 1259,424 L 1259,425 L 1260,425 L 1262,423 L 1264,423 L 1265,422 L 1266,423 L 1267,422 L 1268,422 Z M 1558,411 L 1558,412 L 1559,413 L 1559,414 L 1560,415 L 1561,415 L 1562,414 L 1565,414 L 1564,413 L 1564,412 L 1563,411 Z M 1294,407 L 1288,407 L 1287,408 L 1287,409 L 1285,411 L 1280,411 L 1279,412 L 1279,413 L 1278,414 L 1281,414 L 1282,415 L 1283,415 L 1284,414 L 1284,413 L 1285,412 L 1285,411 L 1286,410 L 1289,410 L 1290,411 L 1291,411 L 1294,408 Z M 1519,399 L 1522,402 L 1523,402 L 1524,403 L 1525,403 L 1526,402 L 1529,402 L 1528,401 L 1528,400 L 1527,399 Z M 1505,395 L 1505,396 L 1508,399 L 1509,399 L 1510,398 L 1512,398 L 1512,396 L 1511,395 Z M 1322,398 L 1325,398 L 1326,399 L 1327,399 L 1329,397 L 1330,397 L 1331,396 L 1331,395 L 1324,395 L 1323,396 L 1323,397 Z M 1486,391 L 1488,393 L 1489,393 L 1490,394 L 1491,394 L 1492,395 L 1493,395 L 1494,394 L 1496,394 L 1496,392 L 1495,391 Z M 1339,394 L 1341,394 L 1342,395 L 1344,395 L 1346,393 L 1348,393 L 1350,391 L 1340,391 L 1339,392 Z M 1451,387 L 1452,388 L 1455,388 L 1456,389 L 1462,389 L 1463,390 L 1469,390 L 1470,391 L 1474,391 L 1475,390 L 1476,390 L 1476,388 L 1475,387 Z M 1363,390 L 1365,390 L 1366,391 L 1368,391 L 1369,390 L 1371,390 L 1372,389 L 1376,389 L 1377,388 L 1378,388 L 1379,387 L 1381,387 L 1364,387 L 1363,388 Z M 852,331 L 851,331 L 850,330 L 849,331 L 847,331 L 847,333 L 846,334 L 847,335 L 847,336 L 852,336 Z M 868,319 L 864,319 L 864,320 L 861,323 L 860,323 L 859,324 L 859,328 L 863,328 L 864,327 L 864,326 L 866,324 L 868,324 Z M 1376,307 L 1375,308 L 1375,312 L 1380,312 L 1380,308 L 1379,307 Z M 1360,307 L 1359,308 L 1359,312 L 1364,312 L 1364,308 L 1363,307 Z M 907,308 L 907,312 L 916,312 L 916,307 L 908,307 Z M 1148,303 L 1147,304 L 1147,308 L 1152,308 L 1152,304 L 1151,303 Z M 1007,304 L 1007,308 L 1009,308 L 1012,311 L 1012,312 L 1027,312 L 1028,311 L 1028,305 L 1026,303 L 1008,303 Z M 987,304 L 987,308 L 996,308 L 996,304 L 995,303 L 988,303 Z M 799,287 L 799,292 L 801,292 L 803,294 L 803,297 L 802,298 L 802,300 L 803,301 L 803,304 L 807,304 L 808,303 L 808,289 L 807,288 L 807,287 Z M 1431,239 L 819,240 L 804,372 L 819,372 L 829,348 L 840,351 L 831,344 L 854,320 L 884,316 L 877,308 L 914,300 L 1031,302 L 1027,981 L 987,1020 L 992,1032 L 1054,1004 L 1064,1008 L 1066,996 L 1216,911 L 1196,890 L 1200,883 L 1148,905 L 1148,836 L 1120,785 L 1132,761 L 1124,755 L 1117,771 L 1108,721 L 1116,736 L 1124,719 L 1120,624 L 1112,619 L 1108,630 L 1117,580 L 1132,590 L 1132,576 L 1124,571 L 1121,579 L 1129,548 L 1144,554 L 1144,543 L 1132,546 L 1140,525 L 1158,536 L 1165,521 L 1144,522 L 1144,302 L 1395,304 L 1416,269 L 1428,271 L 1424,258 L 1436,256 Z M 1105,640 L 1106,640 L 1107,641 L 1107,718 L 1106,719 L 1105,719 L 1104,718 L 1104,641 Z" fill="#ffffff" fill-rule="evenodd"/>
  <path d="M 241,1525 L 246,1530 L 578,1530 L 580,1527 L 584,1526 L 584,1517 L 582,1515 L 247,1515 L 243,1516 Z M 1818,1523 L 1823,1531 L 1831,1529 L 2149,1530 L 2152,1528 L 2156,1529 L 2156,1516 L 1825,1514 L 1820,1516 Z M 1927,1137 L 1927,1349 L 1919,1360 L 1904,1359 L 1900,1366 L 1977,1368 L 1974,1359 L 1957,1359 L 1948,1348 L 1950,1185 L 2111,1369 L 2128,1372 L 2132,1352 L 2132,1151 L 2144,1143 L 2155,1144 L 2156,1136 L 2083,1135 L 2083,1144 L 2100,1144 L 2111,1156 L 2110,1311 L 1956,1137 Z M 1676,1137 L 1675,1147 L 1671,1148 L 1672,1155 L 1667,1158 L 1663,1175 L 1659,1176 L 1659,1183 L 1655,1185 L 1656,1191 L 1651,1194 L 1647,1211 L 1643,1213 L 1642,1221 L 1634,1234 L 1635,1239 L 1631,1240 L 1631,1247 L 1627,1249 L 1628,1255 L 1623,1258 L 1623,1267 L 1619,1268 L 1620,1274 L 1615,1278 L 1616,1283 L 1603,1303 L 1603,1311 L 1599,1312 L 1599,1320 L 1595,1321 L 1596,1327 L 1586,1342 L 1587,1347 L 1572,1360 L 1559,1359 L 1555,1366 L 1613,1369 L 1628,1367 L 1627,1359 L 1611,1358 L 1608,1344 L 1612,1342 L 1611,1336 L 1616,1332 L 1620,1316 L 1624,1314 L 1623,1308 L 1628,1304 L 1628,1296 L 1632,1295 L 1631,1288 L 1637,1281 L 1717,1280 L 1723,1288 L 1723,1296 L 1728,1300 L 1727,1307 L 1731,1308 L 1731,1316 L 1740,1328 L 1739,1335 L 1743,1337 L 1743,1345 L 1748,1351 L 1742,1359 L 1729,1359 L 1727,1368 L 1817,1369 L 1814,1359 L 1800,1359 L 1784,1343 L 1784,1335 L 1781,1334 L 1780,1326 L 1775,1323 L 1776,1316 L 1772,1315 L 1772,1307 L 1767,1304 L 1767,1298 L 1763,1295 L 1761,1282 L 1756,1279 L 1756,1271 L 1751,1267 L 1752,1260 L 1748,1259 L 1748,1251 L 1743,1247 L 1744,1241 L 1740,1240 L 1740,1232 L 1736,1231 L 1737,1226 L 1727,1211 L 1728,1205 L 1724,1203 L 1724,1195 L 1715,1183 L 1716,1176 L 1712,1175 L 1708,1158 L 1703,1155 L 1704,1149 L 1700,1148 L 1700,1140 L 1695,1135 Z M 1677,1181 L 1679,1182 L 1679,1186 L 1680,1187 L 1679,1188 L 1680,1188 L 1684,1192 L 1684,1196 L 1683,1197 L 1683,1199 L 1684,1198 L 1687,1200 L 1687,1207 L 1691,1209 L 1690,1210 L 1691,1211 L 1690,1213 L 1691,1214 L 1691,1217 L 1694,1218 L 1696,1220 L 1695,1227 L 1698,1227 L 1699,1228 L 1699,1236 L 1700,1236 L 1704,1240 L 1704,1244 L 1703,1246 L 1707,1248 L 1707,1252 L 1706,1253 L 1707,1254 L 1707,1256 L 1709,1256 L 1710,1257 L 1710,1260 L 1711,1261 L 1711,1265 L 1709,1267 L 1707,1267 L 1706,1266 L 1688,1266 L 1687,1267 L 1677,1267 L 1676,1266 L 1675,1267 L 1674,1266 L 1653,1266 L 1652,1265 L 1645,1266 L 1643,1264 L 1643,1260 L 1647,1256 L 1648,1251 L 1652,1247 L 1652,1242 L 1651,1241 L 1653,1238 L 1656,1237 L 1656,1234 L 1657,1233 L 1656,1231 L 1661,1225 L 1660,1224 L 1660,1220 L 1664,1218 L 1663,1216 L 1663,1212 L 1666,1209 L 1668,1209 L 1668,1206 L 1669,1205 L 1668,1204 L 1668,1200 L 1672,1198 L 1671,1196 L 1671,1192 L 1676,1186 L 1676,1182 Z M 1282,1158 L 1259,1181 L 1259,1187 L 1255,1188 L 1252,1199 L 1247,1202 L 1238,1242 L 1243,1289 L 1255,1314 L 1260,1316 L 1272,1336 L 1310,1360 L 1356,1372 L 1402,1372 L 1448,1364 L 1456,1358 L 1455,1344 L 1460,1339 L 1459,1323 L 1462,1318 L 1460,1311 L 1451,1316 L 1438,1335 L 1411,1352 L 1367,1356 L 1332,1344 L 1295,1306 L 1296,1301 L 1292,1299 L 1288,1281 L 1283,1276 L 1281,1255 L 1283,1211 L 1288,1206 L 1288,1196 L 1304,1172 L 1324,1155 L 1355,1147 L 1384,1147 L 1391,1152 L 1403,1152 L 1432,1173 L 1435,1183 L 1439,1184 L 1439,1193 L 1443,1195 L 1442,1201 L 1451,1204 L 1456,1147 L 1451,1143 L 1439,1143 L 1436,1139 L 1424,1140 L 1419,1135 L 1356,1131 L 1344,1136 L 1338,1134 L 1324,1140 L 1317,1139 Z M 1318,399 L 1269,419 L 1218,454 L 1179,497 L 1147,555 L 1127,629 L 1126,712 L 1151,802 L 1196,868 L 1237,904 L 1343,952 L 1467,960 L 1582,928 L 1599,828 L 1583,827 L 1552,878 L 1507,912 L 1471,924 L 1395,923 L 1313,884 L 1272,843 L 1240,791 L 1211,685 L 1215,584 L 1248,504 L 1296,456 L 1362,431 L 1416,429 L 1475,439 L 1546,480 L 1571,512 L 1579,539 L 1592,540 L 1592,432 L 1584,423 L 1504,395 L 1450,387 L 1382,387 Z" fill="#c9943d" fill-rule="evenodd"/>
</svg>
